<?xml version="1.0" encoding="UTF-8"?>
<!DOCTYPE svg PUBLIC "-//W3C//DTD SVG 1.1//EN" "http://www.w3.org/Graphics/SVG/1.1/DTD/svg11.dtd">
<svg xmlns="http://www.w3.org/2000/svg" version="1.1" width="512px" height="512px" style="shape-rendering:geometricPrecision; text-rendering:geometricPrecision; image-rendering:optimizeQuality; fill-rule:evenodd; clip-rule:evenodd" xmlns:xlink="http://www.w3.org/1999/xlink">
<g><path style="opacity:1" fill="#fecb4a" d="M 172.5,-0.5 C 190.5,-0.5 208.5,-0.5 226.5,-0.5C 301.245,12.2864 354.078,53.2864 385,122.5C 408.658,186.612 402.991,247.946 368,306.5C 363.221,314.4 357.721,321.733 351.5,328.5C 347.806,331.527 344.473,334.86 341.5,338.5C 334.423,332.929 327.756,326.762 321.5,320C 320.552,319.517 319.552,319.351 318.5,319.5C 318.5,319.167 318.5,318.833 318.5,318.5C 351.506,285.372 368.506,245.206 369.5,198C 367.653,138.959 342.986,92.2923 295.5,58C 244.745,25.1543 191.079,19.4876 134.5,41C 113.36,49.5558 95.0266,62.0558 79.5,78.5C 79.1667,78.5 78.8333,78.5 78.5,78.5C 72.2247,70.8875 65.558,63.5542 58.5,56.5C 90.0873,24.9533 128.087,5.95327 172.5,-0.5 Z"/></g>
<g><path style="opacity:1" fill="#eef5fd" d="M 318.5,318.5 C 291.55,289.883 263.884,261.883 235.5,234.5C 236.759,230.952 237.593,227.285 238,223.5C 238.667,205.833 238.667,188.167 238,170.5C 234.282,155.453 225.448,144.619 211.5,138C 189.408,130.767 171.741,136.6 158.5,155.5C 157.761,155.631 157.094,155.464 156.5,155C 130.965,129.298 105.299,103.798 79.5,78.5C 95.0266,62.0558 113.36,49.5558 134.5,41C 191.079,19.4876 244.745,25.1543 295.5,58C 342.986,92.2923 367.653,138.959 369.5,198C 368.506,245.206 351.506,285.372 318.5,318.5 Z"/></g>
<g><path style="opacity:0.979" fill="#feb827" d="M 58.5,56.5 C 65.558,63.5542 72.2247,70.8875 78.5,78.5C 29.6849,132.359 17.5182,193.692 42,262.5C 66.5811,317.07 108.081,351.236 166.5,365C 224.748,374.282 275.414,359.115 318.5,319.5C 319.552,319.351 320.552,319.517 321.5,320C 327.756,326.762 334.423,332.929 341.5,338.5C 340.833,339.167 340.167,339.833 339.5,340.5C 335.833,343.5 332.5,346.833 329.5,350.5C 276.139,393.753 215.806,407.586 148.5,392C 77.0343,371.201 29.8677,325.368 7,254.5C 3.73096,242.519 1.23096,230.519 -0.5,218.5C -0.5,205.167 -0.5,191.833 -0.5,178.5C 3.91508,141.423 17.0817,107.757 39,77.5C 44.6315,69.7015 51.1315,62.7015 58.5,56.5 Z"/></g>
<g><path style="opacity:1" fill="#d8e3ee" d="M 78.5,78.5 C 78.8333,78.5 79.1667,78.5 79.5,78.5C 105.299,103.798 130.965,129.298 156.5,155C 157.094,155.464 157.761,155.631 158.5,155.5C 158.167,156.167 157.833,156.833 157.5,157.5C 155.519,160.936 154.019,164.603 153,168.5C 152.333,188.167 152.333,207.833 153,227.5C 159.958,251.109 175.791,262.276 200.5,261C 216.299,258.358 227.632,249.858 234.5,235.5C 235.167,235.5 235.5,235.167 235.5,234.5C 263.884,261.883 291.55,289.883 318.5,318.5C 318.5,318.833 318.5,319.167 318.5,319.5C 275.414,359.115 224.748,374.282 166.5,365C 108.081,351.236 66.5811,317.07 42,262.5C 17.5182,193.692 29.6849,132.359 78.5,78.5 Z"/></g>
<g><path style="opacity:1" fill="#219cfc" d="M 81.5,135.5 C 95.504,135.333 109.504,135.5 123.5,136C 127.186,137.089 130.019,139.255 132,142.5C 133.65,171.747 133.983,201.081 133,230.5C 126.64,251.524 112.473,261.691 90.5,261C 69.3052,256.967 57.6386,244.133 55.5,222.5C 58.364,208.567 66.364,204.401 79.5,210C 82.1059,211.938 83.9392,214.438 85,217.5C 84.8947,223.227 87.0613,227.727 91.5,231C 96.5333,232.567 100.367,231.067 103,226.5C 103.5,206.169 103.667,185.836 103.5,165.5C 96.825,165.666 90.1583,165.5 83.5,165C 71.962,159.772 69.1287,151.605 75,140.5C 76.9651,138.45 79.1318,136.783 81.5,135.5 Z"/></g>
<g><path style="opacity:1" fill="#3cb4fb" d="M 235.5,234.5 C 235.5,235.167 235.167,235.5 234.5,235.5C 226.555,225.887 217.889,216.887 208.5,208.5C 208.828,197.321 208.495,186.321 207.5,175.5C 205.055,167.567 199.721,164.4 191.5,166C 184.468,169.226 181.468,174.726 182.5,182.5C 182.5,194.833 182.5,207.167 182.5,219.5C 181.669,206.673 181.169,193.673 181,180.5C 173.298,172.631 165.465,164.964 157.5,157.5C 157.833,156.833 158.167,156.167 158.5,155.5C 171.741,136.6 189.408,130.767 211.5,138C 225.448,144.619 234.282,155.453 238,170.5C 238.667,188.167 238.667,205.833 238,223.5C 237.593,227.285 236.759,230.952 235.5,234.5 Z"/></g>
<g><path style="opacity:1" fill="#3bb4fb" d="M 265.5,135.5 C 281.17,135.333 296.837,135.5 312.5,136C 336.65,144.459 346.15,161.293 341,186.5C 339.213,190.577 337.046,194.41 334.5,198C 345.552,215.135 345.052,231.969 333,248.5C 325.788,256.022 316.954,260.189 306.5,261C 293.5,261.667 280.5,261.667 267.5,261C 262.333,259.167 258.833,255.667 257,250.5C 256.333,215.5 256.333,180.5 257,145.5C 258.978,141.362 261.811,138.029 265.5,135.5 Z"/></g>
<g><path style="opacity:1" fill="#1f9cfc" d="M 157.5,157.5 C 165.465,164.964 173.298,172.631 181,180.5C 181.169,193.673 181.669,206.673 182.5,219.5C 185.445,230.472 192.111,233.639 202.5,229C 205.106,227.062 206.939,224.562 208,221.5C 208.499,217.179 208.666,212.846 208.5,208.5C 217.889,216.887 226.555,225.887 234.5,235.5C 227.632,249.858 216.299,258.358 200.5,261C 175.791,262.276 159.958,251.109 153,227.5C 152.333,207.833 152.333,188.167 153,168.5C 154.019,164.603 155.519,160.936 157.5,157.5 Z"/></g>
<g><path style="opacity:1" fill="#eef5fd" d="M 207.5,175.5 C 207.666,185.839 207.5,196.172 207,206.5C 198.965,198.298 190.798,190.298 182.5,182.5C 181.468,174.726 184.468,169.226 191.5,166C 199.721,164.4 205.055,167.567 207.5,175.5 Z"/></g>
<g><path style="opacity:1" fill="#ecf5fd" d="M 286.5,165.5 C 293.508,165.334 300.508,165.5 307.5,166C 312.612,169.411 313.778,173.911 311,179.5C 310.097,180.701 308.931,181.535 307.5,182C 300.589,183.384 293.589,183.884 286.5,183.5C 286.5,177.5 286.5,171.5 286.5,165.5 Z"/></g>
<g><path style="opacity:1" fill="#d7e3ef" d="M 207.5,175.5 C 208.495,186.321 208.828,197.321 208.5,208.5C 208.666,212.846 208.499,217.179 208,221.5C 206.939,224.562 205.106,227.062 202.5,229C 192.111,233.639 185.445,230.472 182.5,219.5C 182.5,207.167 182.5,194.833 182.5,182.5C 190.798,190.298 198.965,198.298 207,206.5C 207.5,196.172 207.666,185.839 207.5,175.5 Z"/></g>
<g><path style="opacity:1" fill="#edf5fd" d="M 286.5,213.5 C 293.508,213.334 300.508,213.5 307.5,214C 312.612,217.411 313.778,221.911 311,227.5C 309.786,229.049 308.286,230.215 306.5,231C 299.842,231.5 293.175,231.666 286.5,231.5C 286.5,225.5 286.5,219.5 286.5,213.5 Z"/></g>
<g><path style="opacity:0.939" fill="#fd2147" d="M 339.5,340.5 C 340.552,340.351 341.552,340.517 342.5,341C 352,350.5 361.5,360 371,369.5C 371.667,370.167 371.667,370.833 371,371.5C 367.573,375.387 364.406,379.387 361.5,383.5C 350.833,372.5 340.167,361.5 329.5,350.5C 332.5,346.833 335.833,343.5 339.5,340.5 Z"/></g>
<g><path style="opacity:0.999" fill="#ff7478" d="M 511.5,451.5 C 511.5,458.167 511.5,464.833 511.5,471.5C 508.669,480.826 504.002,489.159 497.5,496.5C 456.229,454.728 414.729,413.062 373,371.5C 372.333,370.833 372.333,370.167 373,369.5C 376.736,366.583 380.236,363.583 383.5,360.5C 401.059,353.081 418.059,354.247 434.5,364C 456.639,385.138 478.472,406.638 500,428.5C 505.467,435.433 509.3,443.1 511.5,451.5 Z"/></g>
<g><path style="opacity:0.981" fill="#fe4a60" d="M 351.5,328.5 C 362.5,338.833 373.167,349.5 383.5,360.5C 380.236,363.583 376.736,366.583 373,369.5C 372.333,370.167 372.333,370.833 373,371.5C 414.729,413.062 456.229,454.728 497.5,496.5C 481.485,511.074 463.152,514.574 442.5,507C 437.999,504.584 433.666,501.917 429.5,499C 407.638,477.472 386.138,455.639 365,433.5C 355.407,417.354 354.241,400.687 361.5,383.5C 364.406,379.387 367.573,375.387 371,371.5C 371.667,370.833 371.667,370.167 371,369.5C 361.5,360 352,350.5 342.5,341C 341.552,340.517 340.552,340.351 339.5,340.5C 340.167,339.833 340.833,339.167 341.5,338.5C 344.473,334.86 347.806,331.527 351.5,328.5 Z"/></g>
</svg>
